Coordinates
version=1
nRows=10
nColumns=40
inDegrees=yes

Units are S.I. units (second, meters, Newtons, ...)
If the header above contains a line with 'inDegrees', this indicates whether rotational values are in degrees (yes) or radians (no).

endheader
time	pelvis_tilt	pelvis_list	pelvis_rotation	pelvis_tx	pelvis_ty	pelvis_tz	hip_flexion_r	hip_adduction_r	hip_rotation_r	knee_angle_r	knee_angle_r_beta	ankle_angle_r	subtalar_angle_r	mtp_angle_r	hip_flexion_l	hip_adduction_l	hip_rotation_l	knee_angle_l	knee_angle_l_beta	ankle_angle_l	subtalar_angle_l	mtp_angle_l	lumbar_extension	lumbar_bending	lumbar_rotation	arm_flex_r	arm_add_r	arm_rot_r	elbow_flex_r	pro_sup_r	wrist_flex_r	wrist_dev_r	arm_flex_l	arm_add_l	arm_rot_l	elbow_flex_l	pro_sup_l	wrist_flex_l	wrist_dev_l
      6.00000000	     85.98026883	     44.59518413	     87.70968830	      0.41967605	      0.61893648	      0.70507943	     95.27364140	     -7.04718964	      0.35892848	     52.61374530	      0.91828309	      6.47580607	      0.00000000	      0.00000000	     93.03484967	    -21.82568159	     -6.51333631	     53.35846272	      0.93128086	      8.63749431	      0.00000000	      0.00000000	    -47.57093317	    -11.84972525	     -8.37914137	     76.77761695	      3.60509734	     26.34578343	     11.95545005	     32.64178340	      0.00000000	      0.00000000	    -86.88397746	   -119.68153695	    -85.88824119	     73.63943987	     30.08671507	      0.00000000	      0.00000000
      6.00500000	     85.55056941	     44.64205691	     87.74235724	      0.42017052	      0.61973779	      0.70335231	     95.61009450	     -6.64224296	      0.91988540	     53.02862160	      0.92552404	      6.56530649	      0.00000000	      0.00000000	     93.19894006	    -22.22841538	     -6.79362128	     53.84869809	      0.93983708	      8.84816051	      0.00000000	      0.00000000	    -47.26789230	    -12.32965643	     -8.57351081	     76.84728268	      4.28574004	     24.71229734	     10.99216144	     36.59981393	      0.00000000	      0.00000000	    -86.90867204	   -119.69040945	    -85.52999318	     72.65620128	     35.30632551	      0.00000000	      0.00000000
      6.01000000	     85.97243119	     44.93616018	     87.60528532	      0.42021747	      0.61934137	      0.70218603	     95.52495172	     -6.87417457	      0.57301583	     53.49762370	      0.93370968	      6.87529693	      0.00000000	      0.00000000	     93.34423567	    -22.09005188	     -6.30987251	     54.31535918	      0.94798185	      9.01944119	      0.00000000	      0.00000000	    -47.35760569	    -11.93828842	     -8.14461983	     76.89845530	      4.09555619	     23.46246650	     10.63129228	     38.46705630	      0.00000000	      0.00000000	    -87.15270777	   -119.67641597	    -85.86513981	     73.37165059	     37.53770351	      0.00000000	      0.00000000
      6.01500000	     85.95163395	     45.20012261	     87.63419471	      0.42036402	      0.61935828	      0.70093108	     95.55618258	     -6.86969140	      0.69349557	     53.95646239	      0.94171792	      7.08675683	      0.00000000	      0.00000000	     93.37824054	    -22.15936680	     -6.26398529	     54.78023370	      0.95609544	      9.18550934	      0.00000000	      0.00000000	    -47.38148214	    -11.94340633	     -8.12881045	     76.91291157	      4.25419665	     22.85543612	     10.22012246	     39.47150482	      0.00000000	      0.00000000	    -87.24014253	   -119.67641295	    -85.79475425	     73.35131091	     38.32857030	      0.00000000	      0.00000000
      6.02000000	     85.74918771	     45.30513475	     87.73108783	      0.42068615	      0.61958608	      0.69939705	     95.79543549	     -6.77222216	      0.98926513	     54.40309389	      0.94951311	      7.22369408	      0.00000000	      0.00000000	     93.51974129	    -22.29976550	     -6.36792852	     55.22557957	      0.96386819	      9.32704745	      0.00000000	      0.00000000	    -47.20925001	    -12.11398776	     -8.17572379	     76.53663450	      4.20108746	     22.32651696	     10.56374964	     40.32579386	      0.00000000	      0.00000000	    -87.41584718	   -119.67705364	    -85.82478959	     73.23367522	     39.32823832	      0.00000000	      0.00000000
      6.02500000	     85.88956203	     45.56559260	     87.70100730	      0.42090652	      0.61943757	      0.69818676	     95.78838497	     -6.84466042	      0.96407460	     54.83263113	      0.95700995	      7.43777989	      0.00000000	      0.00000000	     93.60334383	    -22.26112785	     -6.11292943	     55.65723314	      0.97140197	      9.51282956	      0.00000000	      0.00000000	    -47.21124422	    -11.93168778	     -8.06692180	     76.31777153	      3.65835242	     27.08040017	     10.98074392	     35.08812359	      0.00000000	      0.00000000	    -87.32568778	   -119.67678209	    -85.47487235	     74.29980618	     27.69600779	      0.00000000	      0.00000000
      6.03000000	     85.92918309	     45.75858529	     87.72249950	      0.42111600	      0.61938086	      0.69690870	     95.86829094	     -6.89792978	      1.00011447	     55.25830268	      0.96443932	      7.62104115	      0.00000000	      0.00000000	     93.69390513	    -22.25669496	     -5.98741512	     56.04289426	      0.97813303	      9.68287580	      0.00000000	      0.00000000	    -47.16365559	    -11.88962934	     -8.05479957	     76.22681236	      3.81707760	     26.17178977	     10.90351840	     34.35515809	      0.00000000	      0.00000000	    -87.45718065	   -119.67746097	    -85.25316142	     74.05922097	     27.90533353	      0.00000000	      0.00000000
      6.03500000	     85.78813149	     45.99258265	     87.67430814	      0.42124671	      0.61973368	      0.69564840	     95.91971473	     -6.68983640	      1.22701997	     55.66256086	      0.97149496	      7.83847159	      0.00000000	      0.00000000	     93.72608220	    -22.55973004	     -6.13669380	     56.54260154	      0.98685456	      9.81755029	      0.00000000	      0.00000000	    -47.14276431	    -12.09041739	     -7.98606765	     76.35877245	      4.36033942	     22.54274351	     10.02282135	     38.66750057	      0.00000000	      0.00000000	    -87.51973459	   -119.67992229	    -85.28377739	     73.51580376	     36.57050792	      0.00000000	      0.00000000
      6.04000000	     85.86698304	     46.09461201	     87.82481852	      0.42155806	      0.61938130	      0.69423009	     96.11353193	     -6.91253631	      1.25931463	     56.13319293	      0.97970904	      7.99111987	      0.00000000	      0.00000000	     93.90215431	    -22.33997246	     -5.90991856	     56.85060939	      0.99223032	      9.95792420	      0.00000000	      0.00000000	    -47.00777418	    -11.88799928	     -7.99205436	     75.84507784	      4.09953619	     21.82818975	     10.82700256	     39.77488433	      0.00000000	      0.00000000	    -87.78416284	   -119.67557476	    -85.45549905	     73.61363517	     37.99732684	      0.00000000	      0.00000000
      6.04500000	     85.91935882	     46.26876492	     87.81678389	      0.42183272	      0.61932922	      0.69294108	     96.18530888	     -6.92175950	      1.31943977	     56.49617016	      0.98604418	      8.17373122	      0.00000000	      0.00000000	     94.04667467	    -22.33740322	     -5.71883394	     57.28230689	      0.99976486	     10.09985092	      0.00000000	      0.00000000	    -46.92992882	    -11.82605277	     -7.97214714	     76.09242833	      4.40248909	     21.64574618	      9.87004983	     40.13914922	      0.00000000	      0.00000000	    -87.71087293	   -119.67675759	    -85.08590721	     73.50682863	     38.45378422	      0.00000000	      0.00000000
